# xmcd
#
# Track frame offsets:
#	150
#	26666
#	56982
#	79187
#	129078
#	171791
#	212702
#	237749
#
# Disc length: 3421 seconds
#
# Revision: 1
# Processed by: cddbd v1.5.2PL0 Copyright (c) Steve Scherf et al.
# Submitted via: audiograbber 1.83.01
#
DISCID=6d0d5b08
DTITLE=Dire Straits - Live in Nimes 92
DYEAR=1992
DGENRE=Rock
TTITLE0=When it comes to you
TTITLE1=On Every Street
TTITLE2=Two Young Lovers
TTITLE3=Telegraph Road
TTITLE4=Money for Nothing
TTITLE5=Brothers in Arms
TTITLE6=Solid Rock
TTITLE7=Going Home/Wil Theme
EXTD=
EXTT0=
EXTT1=
EXTT2=
EXTT3=
EXTT4=
EXTT5=
EXTT6=
EXTT7=
PLAYORDER=
